<svg width="217" height="41" viewBox="0 0 217 41" fill="none" xmlns="http://www.w3.org/2000/svg">
<path d="M20.5 0.0438232L24.9903 13.8635H39.5211L27.7654 22.4045L32.2557 36.2242L20.5 27.6831L8.7443 36.2242L13.2346 22.4045L1.47887 13.8635H16.0097L20.5 0.0438232Z" fill="#DE9200"/>
<path d="M64.5 0.0438232L68.9903 13.8635H83.5211L71.7654 22.4045L76.2557 36.2242L64.5 27.6831L52.7443 36.2242L57.2346 22.4045L45.4789 13.8635H60.0097L64.5 0.0438232Z" fill="#DE9200"/>
<path d="M108.5 1.66186L112.515 14.018L112.627 14.3635H112.99H125.982L115.472 22L115.178 22.2135L115.29 22.559L119.305 34.9151L108.794 27.2786L108.5 27.0651L108.206 27.2786L97.6954 34.9151L101.71 22.559L101.822 22.2135L101.528 22L91.0177 14.3635H104.01H104.373L104.485 14.018L108.5 1.66186Z" stroke="#DE9200"/>
<path d="M152.5 1.66186L156.515 14.018L156.627 14.3635H156.99H169.982L159.472 22L159.178 22.2135L159.29 22.559L163.305 34.9151L152.794 27.2786L152.5 27.0651L152.206 27.2786L141.695 34.9151L145.71 22.559L145.822 22.2135L145.528 22L135.018 14.3635H148.01H148.373L148.485 14.018L152.5 1.66186Z" stroke="#DE9200"/>
<path d="M196.5 1.66186L200.515 14.018L200.627 14.3635H200.99H213.982L203.472 22L203.178 22.2135L203.29 22.559L207.305 34.9151L196.794 27.2786L196.5 27.0651L196.206 27.2786L185.695 34.9151L189.71 22.559L189.822 22.2135L189.528 22L179.018 14.3635H192.01H192.373L192.485 14.018L196.5 1.66186Z" stroke="#DE9200"/>
</svg>
